<svg width="100" height="107" viewBox="0 0 100 107" fill="none" xmlns="http://www.w3.org/2000/svg">
<path d="M0.10287 61.1388C1.76198 86.3693 23.2829 106.333 49.5877 106.333C75.8924 106.333 97.4134 86.3693 99.0725 61.1388H0.10287Z" fill="#A4D49B"/>
<path d="M7.77116 32.0121C2.85147 39.5168 0 48.434 0 58.0004C0 59.0547 0.0346394 60.1012 0.10287 61.1388H99.0725C99.1407 60.1012 99.1754 59.0547 99.1754 58.0004C99.1754 48.5412 96.3875 39.7168 91.5689 32.265L7.77116 32.0121Z" fill="#DFF3D9"/>
<path d="M18.8308 20.0859C14.4999 23.4281 10.7551 27.4603 7.77116 32.0121L91.5689 32.265C88.5585 27.6096 84.7555 23.4899 80.3446 20.0859H18.8308Z" fill="#F6FAF4"/>
<path d="M43.311 5.72205e-05C37.8174 5.72205e-05 32.5487 2.11627 28.6641 5.88316C24.7795 9.65004 22.5972 14.759 22.5972 20.0862C22.5972 25.4134 24.7795 30.5224 28.6641 34.2893C32.5487 38.0561 37.8174 40.1724 43.311 40.1724L43.311 20.0862L43.311 5.72205e-05Z" fill="#E6C448"/>
</svg>
