<svg width="24" height="24" viewBox="0 0 24 24" fill="none" xmlns="http://www.w3.org/2000/svg">
<path d="M11 14.699V20.955C10.333 20.969 9.5 20.891 9 20.772V14.567C9 11.807 10.367 12.679 11.504 9.324C11.221 11.077 11 11.976 11 14.699ZM12 24C8.259 24 6 24 6 21.701V13.547C6 10.65 7.78 10.187 8.25 9.187C8.684 8.263 9.187 4.602 9.204 4.138L9.156 4.06C8.704 3.373 8.578 2.688 9.213 1.04C9.397 0.557 9.882 0 12 0C14.118 0 14.603 0.557 14.788 1.042C15.364 2.537 15.377 3.3 14.837 4.065C14.813 4.6 15.316 8.261 15.75 9.186C16.221 10.186 18 10.65 18 13.546V21.7C18 24 15.741 24 12 24ZM10.961 2.083C10.75 2.702 10.777 2.884 10.779 2.893C11.071 3.267 11.204 3.702 11.204 4.15C11.204 4.537 10.694 8.684 10.06 10.036C9.372 11.502 8 11.577 8 13.547V21.701C8.458 22.127 15.544 22.102 16.042 21.724L16 13.547C16 11.579 14.628 11.501 13.939 10.037C13.305 8.684 12.795 4.538 12.795 4.151C12.795 3.49 13.06 3.114 13.202 2.913C13.23 2.877 13.248 2.688 13.039 2.084C12.832 2.042 12.479 2 12 2C11.521 2 11.169 2.042 10.961 2.083Z" fill="#C5C5C5"/>
</svg>
