<svg width="24" height="24" viewBox="0 0 24 24" fill="none" xmlns="http://www.w3.org/2000/svg">
<path d="M11.793 1.576C13.048 1.576 14.112 2.396 14.477 3.531C14.691 3.449 14.924 3.405 15.166 3.405C16.24 3.405 17.11 4.276 17.11 5.349C17.11 6.422 16.239 7.293 15.166 7.293C14.54 7.293 13.983 6.997 13.627 6.537C13.134 6.96 12.493 7.216 11.792 7.216C10.908 7.216 10.119 6.808 9.602 6.171C9.178 6.668 8.546 6.984 7.841 6.984C7.237 6.984 6.686 6.753 6.274 6.373C5.92 6.86 5.347 7.177 4.699 7.177C1.718 7.177 1.978 3.288 4.699 3.288C5.097 3.288 5.468 3.408 5.776 3.614C6.159 2.863 6.94 2.348 7.841 2.348C8.432 2.348 8.972 2.57 9.382 2.934C9.875 2.121 10.771 1.576 11.793 1.576ZM11.793 0C10.822 0 9.848 0.322 9.046 0.964C7.756 0.544 6.3 0.819 5.251 1.756C3.103 1.417 1 2.812 1 5.425C1 7.366 2.758 8.753 4.699 8.753C5.312 8.753 5.908 8.591 6.43 8.296C7.428 8.684 8.557 8.646 9.538 8.17C10.704 8.868 12.176 9.002 13.495 8.448C14 8.721 14.572 8.868 15.167 8.868C17.108 8.868 18.688 7.289 18.688 5.347C18.688 3.473 17.216 1.936 15.368 1.832C14.6 0.765 13.312 0 11.793 0ZM9 20H7V9.928C7.604 10.125 8.479 10.104 9 9.784V20ZM17 21.224V9.849C16.381 10.084 15.701 10.189 15 10.141V21.224C15 21.497 15.019 21.762 15.084 22.015H4.916C4.98 21.762 5 21.497 5 21.224V10.014C4.329 10.081 3.669 10.002 3.03 9.782V21.224C3.03 21.888 2.664 22.427 2 22.427V24H18V22.427C17.336 22.427 17 21.888 17 21.224ZM19.851 9H18V11H19.492C21.908 11 21.155 15.425 18 17.255V19.415C21.209 18.202 23 14.991 23 12.452C23 10.534 21.995 9 19.851 9Z" fill="#C5C5C5"/>
</svg>
