<svg width="32" height="32" viewBox="0 0 32 32" fill="none" xmlns="http://www.w3.org/2000/svg">
<path d="M4.91441 2.51525C5.45236 2.47618 6.15754 2.51796 6.69346 2.57531C6.86142 2.5931 6.77637 2.67261 6.89231 2.68847C7.11908 2.71939 7.33034 2.68039 7.55443 2.71722C7.62869 2.72981 7.53625 2.85576 7.61412 2.86608C8.04084 2.92175 8.44454 2.88966 8.87682 2.91644C11.0061 3.04853 13.0991 3.09581 15.2544 3.15319C15.9651 3.17201 16.829 3.28631 17.563 3.23632C17.6487 3.23037 17.5976 3.11982 17.6139 3.11071C17.8696 2.97122 17.7846 3.1944 17.9515 3.22405C18.6142 3.34113 19.3511 3.35131 19.9888 3.30865C20.2601 3.29017 19.9881 3.07059 20.2612 3.19384C20.2802 3.20217 20.2114 3.31956 20.2858 3.33209C20.4545 3.36025 20.7746 3.33926 20.9054 3.34857C21.1574 3.36709 21.1991 3.3659 21.4375 3.36724C21.7634 3.37009 22.151 3.42845 22.5006 3.40185C22.5753 3.39582 22.4764 3.27548 22.5955 3.255C22.7146 3.23455 23.0298 3.24476 23.136 3.27313C23.2423 3.30151 23.197 3.3961 23.2158 3.41778C23.3706 3.60077 23.7351 3.34733 23.782 3.34106C24.6372 3.23426 25.3706 3.37864 26.1734 3.37823C26.7778 3.37761 27.4237 3.33072 28 3.33633C28.3752 3.3246 28.6519 3.62475 28.6637 4C28.6636 4.00477 28.6636 4.00954 28.6635 4.01431C28.6553 4.70515 28.5901 5.29067 28.6013 5.96182C28.6023 6.03265 28.7438 5.94965 28.7454 6.03616C28.7618 6.95526 28.7464 7.86797 28.6509 8.78311C28.6412 8.87489 28.5169 8.75661 28.4998 8.8483C28.3977 9.40969 28.1525 10.298 28.6934 10.6314C28.6722 11.0117 28.6504 11.4733 28.5414 11.8135C28.4712 12.0329 28.3359 11.8198 28.3936 12.0893C28.4065 12.15 28.525 12.071 28.5353 12.1621C28.5787 12.5459 28.5402 12.9651 28.6014 13.3446C28.6142 13.4219 28.7204 13.4008 28.7395 13.4226C28.8944 13.6065 28.6384 13.9126 28.6198 13.9793C28.481 14.4874 28.5356 14.8584 28.5322 15.3317C28.5314 15.4415 28.674 15.3117 28.6784 15.4174C28.6988 15.9656 28.6865 16.5334 28.6232 17.0701C28.6088 17.1895 28.4873 17.0797 28.4742 17.1368C28.4179 17.3883 28.6474 17.4441 28.5978 17.6854C28.5876 17.7362 28.4836 17.7076 28.4722 17.7168C28.2928 17.862 28.5469 17.9882 28.5526 18.0256C28.6292 18.498 28.3639 18.8 28.4015 19.2564C28.4063 19.311 28.5379 19.1879 28.5432 19.3414C28.5796 20.3639 28.5434 21.4453 28.4381 22.4575C28.4219 22.6148 28.323 22.5025 28.3109 22.5124C28.1204 22.6738 28.3756 22.7782 28.3852 22.8295C28.4544 23.2343 28.2404 23.6125 28.5443 23.8875C28.4597 25.2631 28.5529 26.6337 28.4523 28C28.4603 28.2557 28.2557 28.4443 28 28.4523C27.6635 28.4275 27.3273 28.391 26.9914 28.3372C26.9698 28.3341 27.0085 28.2084 26.9654 28.2026C26.4461 28.1321 26.5458 28.3274 26.2022 28.5663C26.1156 28.6263 25.8523 28.3379 25.829 28.3167C25.7441 28.2388 25.8322 28.0518 25.8038 28.0368C25.5686 27.9183 25.6069 28.5366 25.2896 28.5368C25.2797 28.5358 25.3213 28.422 25.2947 28.4107C25.212 28.3751 25.1299 28.4203 25.049 28.3812C24.8637 28.2905 24.7977 27.9901 24.5147 28.1649C24.4789 28.1876 24.5336 28.5384 24.2503 28.5218C24.1374 28.5149 23.6375 28.5209 23.4974 28.4982C23.3574 28.4755 23.4535 28.3624 23.4435 28.3576C23.0665 28.2081 23.2094 28.1461 23.0205 27.9249C22.8317 27.7044 22.884 28.2302 22.807 28.2889C22.7299 28.3474 22.4535 28.2241 22.3855 28.1812C22.3176 28.1383 22.4023 28.0665 22.342 28.0422C21.9416 27.8837 22.1662 28.3032 22.0343 28.3867C21.7234 28.5843 21.4811 28.1943 21.1964 28.1561C21.1194 28.1458 21.1823 28.2346 21.1137 28.2429C20.842 28.2746 20.6786 28.153 20.3695 28.2645C20.319 28.2827 20.0691 28.5171 19.9074 28.3451C19.8845 28.3203 19.9496 28.2231 19.8338 28.2014C19.6608 28.1687 19.3492 28.1475 19.1632 28.1799C19.026 28.204 19.1833 28.3641 19.0105 28.3143C18.9337 28.2921 19.0761 28.1985 18.9318 28.1646C18.7883 28.1307 18.4214 28.1348 18.2818 28.138C18.1424 28.1413 18.2187 28.2628 18.2074 28.2709C18.1393 28.3178 17.8718 28.3764 17.8482 28.3762C16.656 28.3911 15.5566 28.1863 14.3959 28.2541C14.3048 28.2592 14.3655 28.3873 14.3516 28.3894C14.0397 28.4431 14.2856 28.1026 14.0678 27.9886C14.0993 28.2485 13.9707 28.2014 13.751 28.2299C13.6451 28.2439 13.7028 28.3445 13.6931 28.3548C13.5362 28.5077 13.4269 28.3102 13.3987 28.2698C13.2947 28.1213 13.1816 28.2968 13.1109 28.1975C13.0402 28.099 13.2029 27.9528 12.9922 27.9547C12.9331 28.0478 13.0895 28.2909 12.9296 28.3303C12.3261 28.4793 11.1996 28.2886 10.7144 28.2687C10.2301 28.2489 10.0737 28.2661 9.79152 28.2325C9.2818 28.1717 9.4686 28.3521 9.15211 28.4346C8.83469 28.5172 8.98899 28.0734 8.94337 27.978C8.89858 27.8826 8.84967 27.9808 8.79395 27.9284C8.73842 27.8759 8.85865 27.8111 8.72804 27.7914C8.59735 27.7717 8.24005 27.9414 8.19373 28.0411C8.09581 28.2525 8.25681 28.4743 7.91102 28.3964C7.89113 28.3917 7.95568 28.275 7.87952 28.2633C7.27468 28.1734 6.64634 28.1678 6.04224 28.0884C5.95918 28.0773 6.03345 27.9475 5.98511 27.9395C5.4816 27.8565 5.66159 28.0754 5.38562 28.3186C5.44759 27.9949 5.29498 27.797 4.91284 27.7951C4.68312 27.7938 4.72268 27.9351 4.5741 28.0347C4.52952 28.0648 4.36698 27.9677 4.33752 28.0342C4.24044 28.2514 4.39338 28.4945 4 28.398C3.77499 28.405 3.60908 28.225 3.60205 28C3.60209 27.9998 3.60213 27.9997 3.60217 27.9995C3.60379 27.9934 3.61962 27.9963 3.63975 28C3.64612 28.2037 3.79631 28.3666 4 28.3602C4.00485 28.3338 4.01107 28.2998 4 28.281C3.84113 28.2859 3.72398 28.1589 3.71901 28C3.72648 27.9956 3.73158 27.9885 3.7329 27.9775C3.78005 27.5915 3.55278 27.5453 3.52526 27.1279C3.50367 26.8008 3.64225 26.219 3.66479 25.8466C4.02861 25.8544 3.9453 25.5026 3.69445 25.3599C3.70472 25.1181 3.69054 24.857 3.72521 24.6234C3.73703 24.543 3.84237 24.5958 3.85375 24.5857C4.0323 24.4302 3.78825 24.3251 3.77868 24.2729C3.68567 23.7074 3.87064 23.2467 3.68987 22.707C3.68336 22.6879 3.43064 22.6568 3.61517 22.5126C3.62789 22.5032 3.74287 22.6815 3.75176 22.4276C3.76067 22.1737 3.89615 21.695 3.77904 21.3425C3.75085 21.2572 3.54569 21.0414 3.70599 20.8683C3.72775 20.8452 3.80023 20.8704 3.84057 20.8371C3.96909 20.7295 3.71365 20.6707 3.93066 20.5442C4.14766 20.4176 4.31017 20.1544 4.16045 19.7989C4.1561 19.7876 3.95364 19.7035 3.95684 19.5917C3.96212 19.4132 4.0043 19.1598 4.00298 18.9735C4.00228 18.8843 3.87656 18.9414 3.87426 18.9259C3.80381 18.326 3.91589 17.899 3.96453 17.2563C3.9737 17.1385 3.80226 16.7999 3.9378 16.5719C4.08617 16.3214 4.70337 16.5788 4.55632 16.0031C4.49751 15.771 3.71448 15.477 4.12017 15.0598C4.01964 14.2506 4.22727 13.5022 4.08373 12.6908C4.07737 12.6543 3.85883 12.5389 3.86181 12.4531C3.86665 12.3257 3.96879 12.2558 3.97552 12.1649C4.00628 11.7838 3.91889 11.4351 3.93249 11.0677C3.93743 10.9282 4.04304 10.977 4.04894 10.8106C4.05475 10.6444 3.91567 10.5335 3.98284 10.3082C4.03404 10.138 4.3183 9.9679 4.35143 9.74203C4.07104 9.73342 4.07682 9.57829 4.0028 9.30257C3.98844 9.24958 3.89085 9.30641 3.87902 9.28133C3.82872 9.1793 3.9096 9.08488 3.85485 8.988C3.8417 8.96443 3.74594 8.96332 3.72979 8.94405C3.58877 8.78022 3.80416 8.51031 3.84167 8.46395C3.98409 8.28628 3.85955 8.20325 3.91564 8.06697C3.97172 7.93092 4.04183 8.13435 4.07586 7.97542C4.14625 7.64599 4.13078 7.22272 4.13518 6.88814C4.13635 6.75464 4.00853 6.84572 4.00573 6.82662C3.97331 6.55057 4.10927 6.27143 3.85467 6.11836C4.51298 5.92697 3.79081 5.9519 3.9226 5.55733C3.93326 5.52624 4.24457 5.48671 4.29027 5.60603C4.33593 5.72535 4.23862 5.9063 4.30987 6.07185C4.32658 6.11106 4.6183 6.33565 4.63598 6.36629C4.77408 6.60632 4.30887 6.64033 4.28332 6.65303C4.00757 6.79704 4.32184 7.07149 4.34356 7.14375C4.44306 7.47438 4.37764 7.75528 4.44866 8.03182C4.49456 8.21268 4.79929 8.23037 4.78997 8.3724C4.75914 8.84451 4.33403 9.0093 4.70263 9.45419C4.78124 9.54958 5.1143 9.45478 4.85241 9.79659C4.83589 9.81807 4.59631 10.0718 4.74785 10.2185C4.76696 10.2369 4.86403 10.2363 4.87218 10.2606C4.92493 10.4233 4.8476 10.5319 4.88463 10.7092C4.92167 10.8865 4.97688 11.0997 4.94396 11.3021C4.92427 11.4241 4.74342 11.5806 4.69915 11.639C4.5716 11.8039 4.78072 11.9807 4.62627 12.0829C4.47104 12.1859 4.2353 11.9845 4.135 12.2546C4.38719 12.2646 4.64603 12.2876 4.89965 12.3037C4.89077 12.8957 4.80922 13.4781 4.82036 14.0721C4.822 14.1458 4.95757 14.0704 4.96282 14.1494C4.98436 14.4824 4.88771 14.7734 4.9262 15.1187C4.95651 15.3861 5.10005 15.6793 5.13622 15.9588C4.84765 16.1296 4.94561 16.5444 4.91924 16.8458C4.91013 16.9514 4.83305 16.9443 4.80791 17.0194C4.71492 17.3026 4.96993 17.1699 5.01006 17.2475C5.18133 17.5807 4.60414 17.6092 4.6184 18.0019C4.61896 18.0227 4.92663 18.2771 4.94579 18.3121C5.07073 18.5347 4.8387 18.349 4.81597 18.4883C4.77442 18.7426 4.70095 18.9193 4.79107 19.2178C4.81776 19.3048 5.00953 19.5135 4.86119 19.6825C4.84177 19.7047 4.74007 19.6924 4.73412 19.7103C4.63484 20.0342 4.95439 20.0427 5.06261 20.2278C5.17081 20.4129 4.95022 20.6988 4.88665 20.7569C4.72218 20.9092 4.81636 20.6403 4.80022 20.6321C4.60815 20.5352 4.64122 20.7437 4.62499 20.9031C4.31167 20.9261 4.33048 21.1489 4.60943 21.0682C4.63989 21.059 4.61068 20.9351 4.62499 20.9031C4.9324 21.0429 4.97177 21.2878 4.6845 21.5582C4.54986 21.6848 4.39288 21.5651 4.45031 21.9497C4.47623 22.1242 4.69197 22.0568 4.75078 22.2108C4.88498 22.5627 4.68373 23.0199 4.71544 23.3827C4.72695 23.5143 4.84505 23.3861 4.85698 23.4761C4.88903 23.7149 4.80042 23.9255 4.84581 24.1653C4.85008 24.187 4.97369 24.1339 4.97527 24.2085C4.98963 24.7739 4.91045 25.2661 4.90825 25.8564C4.90725 26.1416 4.97543 26.6516 4.96172 26.947C4.94689 27.2768 4.86707 27.6554 4.82377 28L4 27.1762C4.19056 27.2002 4.37073 27.2129 4.52649 27.1974C4.8118 27.1694 4.74921 27.0458 4.87146 26.9616C5.10737 26.7983 5.52495 27.0908 5.58118 27.1361C5.58289 27.1376 5.33739 27.1667 5.46839 27.2302C5.54456 27.3624 5.57841 27.1366 5.58118 27.1361C5.61811 27.1653 6.10855 27.1934 6.20594 27.1698C6.25886 27.1568 6.22925 27.0397 6.25684 27.0352C6.91265 26.9303 7.5696 26.9006 8.23475 26.9553C8.24645 26.9577 8.22882 27.0887 8.25636 27.0927C8.64143 27.1509 8.88799 26.9906 9.20558 26.8955C9.52311 26.8003 9.77493 26.8322 9.9629 27.0571C10.2025 27.0288 10.5462 27.1283 10.744 27.1886C10.9418 27.249 10.9694 26.9939 10.9868 26.9888C11.5297 26.8274 11.8435 26.9734 12.4066 26.9962C12.6744 27.0074 13.2055 26.9704 13.4954 26.9425C13.7245 26.92 13.8625 26.9798 14.0736 26.9416C14.1022 26.9365 14.0733 26.8229 14.0821 26.8186C14.3177 26.6827 14.2044 26.9603 14.2531 27.0099C14.4294 27.1902 14.5384 27.2863 14.8401 27.2014C14.9097 27.182 15.1124 26.7822 15.2393 26.7589C15.4042 26.7292 15.342 26.8725 15.5147 26.8378C15.5294 26.8349 15.5264 26.7465 15.633 26.7504C16.1277 26.7674 16.6671 26.8188 17.1813 26.8099C17.2515 26.8091 17.1615 26.6689 17.263 26.6653C17.7391 26.6487 18.261 26.6539 18.7249 26.7195C18.8391 26.7361 18.7675 26.8343 18.7923 26.8634C18.9444 27.0398 19.1602 26.7835 19.1958 26.7786C20.0452 26.6555 20.6952 26.8874 21.5608 26.777C21.6079 26.7705 21.9707 26.4958 22.1325 26.7314C22.1436 26.7471 22.3037 26.9881 22.4452 26.8233C22.454 26.813 22.3543 26.6889 22.5284 26.7016C22.7025 26.7142 22.9826 26.6313 23.222 26.7677C23.2977 26.8106 23.4768 27.0511 23.7028 26.8594C23.7175 26.846 24.0664 26.4126 24.191 26.7116C24.2111 26.7608 24.19 27.0773 24.4598 26.9151C24.5113 26.8836 24.4177 26.813 24.5535 26.7689C24.7615 26.701 25.0372 26.7858 25.2929 26.6448C25.3375 26.6198 25.5273 26.405 25.6796 26.5681C25.7035 26.5936 25.6581 26.6992 25.7386 26.7111C26.121 26.7678 26.5214 26.6971 26.9097 26.7702C27.0472 26.7959 26.9769 26.9667 27.1203 27.0125C27.2637 27.0582 27.5525 27.1022 27.7026 27.0242C27.8526 26.9461 27.6887 26.6739 27.9135 26.6521C27.9423 26.6493 27.9712 26.6468 28 26.6444L26.6444 28C26.5668 27.0521 26.7179 26.1123 26.7406 25.1652C26.744 25.0205 26.6466 25.1405 26.6448 24.9272C26.6375 24.1408 26.5462 22.7831 26.7532 22.1008C26.919 21.554 27.0452 22.2421 27.1126 21.8243C27.1448 21.6227 26.8283 21.4046 26.8184 21.3559C26.7172 20.8805 26.8574 20.55 26.8143 20.1221C26.8054 20.0338 26.6772 20.1204 26.671 20.0452C26.6487 19.7883 26.706 19.5184 26.6955 19.2729C26.6905 19.1628 26.5926 19.183 26.6001 19.0817C26.6171 18.8393 26.6583 18.6248 26.7501 18.3885C26.7584 18.3669 26.8803 18.5122 26.8848 18.3328C26.8918 18.0425 26.9824 17.6821 26.8889 17.3481C26.8607 17.249 26.6368 17.2451 26.7915 17.032C26.8237 16.9873 27.0926 17.0444 26.8603 16.7962C26.8217 16.7545 26.5084 16.3376 26.7103 16.133C26.7635 16.079 26.9835 15.9413 26.9489 15.8221C26.9434 15.8059 26.8231 15.8707 26.8114 15.7719C26.7722 15.4238 26.785 15.059 26.7473 14.7015C26.737 14.606 26.6126 14.7482 26.6012 14.6059C26.5698 14.2145 26.6014 13.7259 26.6404 13.3432C26.655 13.2021 26.7581 13.2996 26.7693 13.2893C26.9518 13.1243 26.7055 13.0266 26.6911 12.9718C26.6051 12.6311 26.7208 12.3715 26.6902 12.0574C26.6821 11.9707 26.5646 12.0322 26.5542 12.0149C26.4518 11.836 26.6627 11.9693 26.686 11.856C26.7518 11.5386 26.7424 11.1849 26.7274 10.8639C26.7217 10.746 26.5855 10.8785 26.582 10.7727C26.5585 10.1466 26.5715 9.49564 26.6466 8.88455C26.661 8.76949 26.7659 8.84188 26.7898 8.8179C26.9574 8.65262 26.7288 8.41039 26.707 8.35465C26.6076 8.10121 26.7004 8.00277 26.6831 7.77896C26.5969 6.68562 26.6583 5.33566 26.6962 4.30361C26.7 4.20073 26.704 4.0996 26.7083 4L28 5.29174C26.7977 5.2404 25.8171 5.15716 24.6327 5.18108C24.5512 5.18259 24.6334 5.32209 24.5631 5.32518C23.656 5.35881 22.7629 5.3043 21.8539 5.34459C21.7793 5.34765 21.8868 5.47989 21.7671 5.48924C21.5215 5.50936 21.2105 5.50217 20.9622 5.45995C20.8411 5.4396 21.0035 5.32613 20.8816 5.30797C20.5978 5.26543 20.2935 5.25601 20.002 5.27721C19.8779 5.28652 20.0651 5.42177 19.9038 5.42333C18.8053 5.43674 17.7264 5.46004 16.6163 5.2849C16.5402 5.27287 16.4735 4.998 16.3116 5.05071C16.2995 5.12699 16.3001 5.21673 16.2948 5.29827C14.6956 5.34219 13.1128 5.2469 11.5091 5.23216C11.4415 5.23158 11.5584 5.37722 11.4275 5.37682C10.6698 5.37466 9.93414 5.41501 9.15916 5.27025C9.08227 5.25609 9.12172 4.99987 8.89513 5.03862C8.85516 5.04569 8.51388 5.07987 8.42564 5.13549C8.41366 5.14388 8.47592 5.26347 8.36595 5.26696C7.72687 5.28512 7.05715 5.25781 6.41917 5.18474C6.3162 5.17272 6.42585 5.04536 6.35252 5.03569C5.83231 4.96809 5.26647 5.0649 4.76939 4.94927C4.43665 4.87141 4.55984 4.65126 4.38303 4.43456C4.35802 4.40399 4.15199 4.39914 4.14133 4.27306C4.11398 3.95602 4.21378 3.60886 4.17283 3.27093C4.16418 3.19814 3.88824 3.27654 4.05161 3.10064C4.06302 3.08887 4.26308 3.03049 4.31235 2.97082C4.34666 2.92956 4.28484 2.80134 4.35483 2.74853C4.42482 2.69577 4.50173 2.80325 4.61777 2.74121C4.73376 2.67839 4.68276 2.53252 4.91441 2.51525ZM11.6347 27.4583C11.8178 27.5808 11.8448 27.1322 11.6467 27.2395C11.6372 27.2452 11.6252 27.4523 11.6347 27.4583ZM4.47081 13.4748C4.27293 13.7143 4.5639 13.8781 4.71672 13.7092C4.86939 13.5403 4.5308 13.4019 4.47081 13.4748ZM4.32635 10.9919C4.17032 11.2718 4.80652 11.3158 4.67791 11.0161C4.67064 10.9986 4.3354 10.9756 4.32635 10.9919ZM5.20298 4.37285C5.20045 4.3669 5.05234 4.36109 5.0488 4.36699C4.96994 4.50948 5.26609 4.52099 5.20298 4.37285ZM4.16906 8.52804C4.083 8.61539 4.18234 8.86693 4.28936 8.75838C4.37545 8.671 4.27611 8.41924 4.16906 8.52804ZM21.1888 27.9371C21.1916 27.9438 21.2978 27.9498 21.2957 27.9121C21.2885 27.7903 21.1407 27.8247 21.1888 27.9371ZM4.16173 4.3404C4.13779 4.95911 3.61226 5.33424 3.67156 4.66047C3.68229 4.53847 3.83915 4.92343 3.88653 4.76814C3.97284 4.48398 3.64288 4.2953 3.81969 4.00532C3.85206 3.95282 4.16427 4.30511 4.16247 4.3415C4.16222 4.34114 4.16198 4.34077 4.16173 4.3404ZM11.7401 27.9972C11.7438 28.0031 11.8908 28.0088 11.8943 28.0029C11.9739 27.8604 11.6778 27.849 11.7401 27.9972ZM27.3847 28.2145C27.3928 28.2272 27.7339 28.239 27.745 28.2274C27.923 27.9945 27.2333 27.9699 27.3847 28.2145ZM3.67449 25.8407C3.53121 25.6803 3.51433 25.4884 3.69427 25.3606C3.68472 25.52 3.68331 25.6804 3.67449 25.8407Z" fill="black"/>
</svg>
