<svg width="32" height="32" viewBox="0 0 32 32" fill="none" xmlns="http://www.w3.org/2000/svg">
<path d="M17.5828 3.77198C17.7913 4.05504 17.9842 4.4726 18.1085 4.80273C18.1477 4.9061 18.0512 4.89802 18.0751 4.97116C18.122 5.11417 18.2244 5.21351 18.2653 5.35797C18.2785 5.40604 18.1394 5.41702 18.1557 5.46598C18.2461 5.73385 18.405 5.94489 18.5222 6.20143C19.0993 7.46518 19.7381 8.66614 20.3883 9.90719C20.6028 10.3163 20.7844 10.8594 21.0661 11.2473C21.0991 11.2926 21.1782 11.2086 21.1914 11.2132C21.3952 11.2873 21.1743 11.351 21.2029 11.4598C21.3167 11.891 21.5472 12.3106 21.7912 12.648C21.8953 12.7914 21.9972 12.5286 21.9791 12.7439C21.9781 12.7587 21.8541 12.7787 21.8674 12.8268C21.8978 12.9358 22.0199 13.1054 22.0543 13.1836C22.1202 13.3346 22.1347 13.3575 22.211 13.4922C22.3143 13.677 22.3897 13.9242 22.5263 14.1075C22.5557 14.1465 22.6279 14.0307 22.6842 14.0875C22.7406 14.1442 22.8342 14.3266 22.8441 14.4006C22.854 14.4745 22.7574 14.4964 22.7447 14.5178C22.6365 14.6963 22.9744 14.7747 22.9951 14.7979C23.3653 15.2256 23.4784 15.7103 23.7395 16.1616C23.9379 16.5041 24.1908 16.8468 24.3735 17.1763C24.5907 17.569 24.7244 17.931 24.9521 18.3029C24.976 18.3422 25.0716 18.2248 25.101 18.2727C25.4137 18.7814 25.6968 19.3025 25.9113 19.8651C25.9327 19.9215 25.7867 19.9171 25.8016 19.9773C25.8955 20.3441 25.9716 20.9664 26.5483 20.8835C26.6535 21.1079 26.7845 21.3785 26.8006 21.6244C26.8095 21.76 26.6744 21.7414 26.7213 21.81L27.0651 22.3516L26.3923 22.3799C26.3783 22.381 26.3596 22.3853 26.3343 22.3936C26.2948 22.4065 26.3462 22.525 26.287 22.5353C26.0378 22.5787 25.7655 22.5402 25.5189 22.6014C25.4688 22.6142 25.4825 22.7204 25.4683 22.7395C25.3489 22.8944 25.1501 22.6384 25.1067 22.6198C24.7767 22.481 24.5357 22.5356 24.2283 22.5322C24.157 22.5314 24.2413 22.674 24.1726 22.6784C23.8166 22.6988 23.4478 22.6865 23.0992 22.6232C23.0216 22.6088 23.0929 22.4873 23.0559 22.4742C22.8925 22.4179 22.8563 22.6474 22.6996 22.5978C22.6665 22.5876 22.6851 22.4836 22.6791 22.4722C22.5848 22.2928 22.5028 22.5469 22.4786 22.5526C22.1717 22.6292 21.9756 22.3639 21.6791 22.4015C21.6437 22.4063 21.7236 22.5379 21.6239 22.5432C20.9598 22.5796 20.2574 22.5434 19.6 22.4381C19.4978 22.4219 19.5707 22.323 19.5643 22.3109C19.4595 22.1204 19.3916 22.3756 19.3583 22.3852C19.0954 22.4544 18.8498 22.2404 18.6711 22.5443C17.5576 22.4388 16.4492 22.6095 15.3449 22.3372C15.3308 22.3341 15.356 22.2084 15.328 22.2026C14.9907 22.1321 15.0555 22.3274 14.8323 22.5663C14.7761 22.6263 14.605 22.3379 14.5899 22.3167C14.5348 22.2388 14.592 22.0518 14.5735 22.0368C14.4207 21.9183 14.4456 22.5366 14.2395 22.5368C14.2331 22.5358 14.2602 22.422 14.2429 22.4107C14.1891 22.3751 14.1358 22.4203 14.0833 22.3812C13.9629 22.2905 13.92 21.9901 13.7362 22.1649C13.713 22.1876 13.7485 22.5384 13.5645 22.5218C13.4911 22.5149 13.1664 22.5209 13.0754 22.4982C12.9846 22.4755 13.047 22.3624 13.0405 22.3576C12.7956 22.2081 12.8884 22.1461 12.7657 21.9249C12.6431 21.7044 12.6771 22.2302 12.6271 22.2889C12.577 22.3474 12.3974 22.2241 12.3533 22.1812C12.3092 22.1383 12.3642 22.0665 12.325 22.0422C12.065 21.8837 12.2109 22.3032 12.1252 22.3867C11.9232 22.5843 11.7659 22.1943 11.581 22.1561C11.5309 22.1458 11.5718 22.2346 11.5272 22.2429C11.3507 22.2746 11.2446 22.153 11.0439 22.2645C11.011 22.2827 10.8487 22.5171 10.7437 22.3451C10.7288 22.3203 10.7711 22.2231 10.6959 22.2014C10.5835 22.1687 10.3811 22.1475 10.2604 22.1799C10.1712 22.204 10.2734 22.3641 10.1612 22.3143C10.1113 22.2921 10.2037 22.1985 10.11 22.1646C10.0168 22.1307 9.77851 22.1348 9.68782 22.138C9.59731 22.1413 9.64685 22.2628 9.63954 22.2709C9.59527 22.3178 9.42154 22.3764 9.40619 22.3762C8.63186 22.3911 7.91779 22.1863 7.16387 22.2541C7.10471 22.2592 7.14412 22.3873 7.13509 22.3894C6.93254 22.4431 7.09224 22.1026 6.95075 21.9886C6.9712 22.2485 6.88767 22.2014 6.745 22.2299C6.67625 22.2439 6.71369 22.3445 6.70742 22.3548C6.60546 22.5077 6.53446 22.3102 6.51618 22.2698C6.44865 22.1213 6.37517 22.2968 6.32922 22.1975C6.28329 22.099 6.38898 21.9528 6.25215 21.9547C6.21378 22.0478 6.31537 22.2909 6.21148 22.3303C6.05018 22.3916 5.83135 22.3954 5.6077 22.3772L4.97131 22.404L5.281 21.8114C5.46341 21.5474 5.68964 21.2973 5.79248 21.1425C5.96689 20.88 6.00282 20.7834 6.12358 20.6415C6.34176 20.3852 6.12489 20.4 6.15617 20.1807C6.18776 19.9609 6.522 20.2696 6.61944 20.2917C6.71657 20.3141 6.64744 20.2376 6.71094 20.2324C6.77436 20.2274 6.7915 20.3275 6.85096 20.2638C6.91043 20.2001 6.87953 19.9143 6.80818 19.8384C6.65696 19.6776 6.41257 19.6573 6.59237 19.5018C6.60283 19.4929 6.68293 19.5875 6.71788 19.5506C6.99211 19.2553 7.20099 18.9046 7.46599 18.6046C7.50258 18.5634 7.59089 18.6701 7.61346 18.6469C7.8489 18.4052 7.60087 18.3969 7.47991 18.1201C7.74003 18.3168 7.96105 18.3299 8.08681 18.1159C8.1625 17.9874 8.02726 17.9389 7.98924 17.8056C7.97772 17.7655 8.11455 17.7226 8.06655 17.6728C7.90993 17.5095 7.64957 17.474 7.8614 17.3008C7.87099 17.2934 7.95612 17.3838 7.98175 17.3538C8.14797 17.1602 7.96615 17.0206 8.07785 16.7721C8.16538 16.5773 8.47434 16.3193 8.61482 16.1211C8.92736 16.3074 8.96946 16.0678 8.79857 15.8621C8.88597 15.7313 8.95848 15.5774 9.06438 15.4633C9.10073 15.424 9.1748 15.5063 9.18795 15.5063C9.39307 15.5081 9.21584 15.327 9.2245 15.2929C9.32761 14.9283 9.63742 14.7616 9.65614 14.3676C9.65672 14.3536 9.44794 14.2098 9.65459 14.2209C9.66864 14.222 9.71033 14.3798 9.80048 14.2414C9.89066 14.103 10.1634 13.9015 10.1765 13.6447C10.1798 13.5826 10.0722 13.3587 10.2672 13.3414C10.2936 13.3393 10.3482 13.3897 10.3939 13.3912C10.5402 13.3949 10.338 13.2341 10.5671 13.2714C10.7961 13.3087 11.0223 13.242 11.0081 12.9671C11.008 12.9586 10.86 12.81 10.8991 12.7487C10.9616 12.651 11.0804 12.5296 11.1398 12.4241C11.1682 12.3735 11.0407 12.3428 11.0438 12.3329C11.1776 11.9603 11.4133 11.7761 11.6642 11.4389C11.7104 11.3773 11.6718 11.1011 11.8633 11.0406C12.0731 10.9739 12.5241 11.4273 12.5837 11.0299C12.6081 10.8699 12.0255 10.3131 12.5123 10.2812C12.688 9.77577 13.1109 9.45864 13.2501 8.93042C13.2564 8.90671 13.1047 8.73254 13.1351 8.68577C13.1807 8.61655 13.2918 8.62829 13.3272 8.58051C13.4776 8.38154 13.5151 8.1417 13.6462 7.94183C13.6958 7.86584 13.7714 7.94608 13.8306 7.85545C13.8896 7.76483 13.8052 7.63293 13.9365 7.53978C14.0361 7.46966 14.3375 7.51609 14.4396 7.4056C14.1995 7.26057 14.2549 7.1762 14.2804 6.9841C14.2851 6.94711 14.1822 6.93028 14.1801 6.91026C14.1696 6.82772 14.2704 6.81505 14.2544 6.73317C14.2507 6.71334 14.1681 6.66484 14.1604 6.64592C14.0914 6.48326 14.3656 6.43913 14.4132 6.4318C14.5942 6.40308 14.5133 6.29411 14.6062 6.24549C14.6989 6.197 14.6936 6.34649 14.7746 6.2741C14.9426 6.12399 15.0667 5.87817 15.1791 5.69217C15.2235 5.61766 15.0832 5.60498 15.087 5.59284C15.1486 5.42135 15.357 5.33231 15.1862 5.11891C15.8185 5.34041 15.1849 4.99335 15.4272 4.83729C15.4465 4.82514 15.729 4.95856 15.7298 5.04853C15.7306 5.13848 15.5876 5.1916 15.5955 5.32035C15.5972 5.35077 15.7769 5.62295 15.7823 5.64902C15.8239 5.85309 15.41 5.63962 15.3838 5.63399C15.0982 5.57712 15.2812 5.88863 15.2766 5.94014C15.2554 6.17587 15.1075 6.30116 15.0792 6.49223C15.0602 6.61691 15.3184 6.77923 15.2642 6.85446C15.0841 7.1046 14.6625 6.98474 14.8372 7.41929C14.8743 7.51226 15.1935 7.62546 14.8557 7.68679C14.8344 7.69061 14.5445 7.71357 14.6282 7.87181C14.6387 7.89173 14.723 7.93993 14.7221 7.95767C14.715 8.07559 14.6127 8.09799 14.5872 8.21624C14.5617 8.33448 14.5403 8.482 14.4461 8.5794C14.3894 8.63818 14.1819 8.6358 14.1246 8.64651C13.9606 8.67549 14.0843 8.8795 13.9174 8.85974C13.7495 8.84007 13.6107 8.60891 13.4362 8.71072C13.6513 8.84243 13.868 8.98479 14.0824 9.12064C13.8825 9.4492 13.6227 9.73607 13.4394 10.0757C13.4169 10.118 13.5588 10.1434 13.5377 10.1904C13.4482 10.3886 13.27 10.5039 13.1912 10.7174C13.1306 10.8829 13.1597 11.1196 13.1002 11.295C12.7949 11.2467 12.745 11.5291 12.6243 11.6854C12.5821 11.7402 12.5177 11.6977 12.4715 11.7274C12.299 11.8402 12.5629 11.893 12.5725 11.9568C12.6126 12.2298 12.1035 11.9572 11.9883 12.1853C11.982 12.1973 12.1659 12.4942 12.1711 12.5235C12.207 12.7111 12.0664 12.4906 12.0014 12.5576C11.8829 12.6799 11.7618 12.7426 11.743 12.9555C11.7378 13.0178 11.8361 13.2311 11.6528 13.252C11.6287 13.2548 11.5447 13.197 11.5337 13.2041C11.3425 13.3366 11.6165 13.5012 11.6501 13.6594C11.6837 13.8176 11.3998 13.8682 11.3259 13.8691C11.134 13.8725 11.3029 13.7684 11.2916 13.7556C11.1567 13.6051 11.1176 13.739 11.0518 13.8205C10.773 13.6768 10.7169 13.8115 10.9847 13.9056C11.0141 13.9157 11.029 13.8313 11.0518 13.8205C11.2726 14.0528 11.2272 14.2103 10.8906 14.2187C10.7329 14.2226 10.6358 14.0768 10.5606 14.3219C10.5264 14.433 10.7351 14.5029 10.7361 14.619C10.738 14.884 10.4152 15.0406 10.3249 15.2605C10.2921 15.3403 10.436 15.3272 10.4171 15.3838C10.3673 15.5341 10.2222 15.6083 10.1836 15.7659C10.1803 15.7802 10.3046 15.8122 10.2817 15.8549C10.1105 16.1801 9.88209 16.4174 9.68848 16.7484C9.59499 16.9083 9.48843 17.2292 9.38061 17.3886C9.19437 17.6651 8.83411 17.9296 8.72986 18.1974C8.66141 18.3719 8.78882 18.3985 8.82207 18.5094C8.88688 18.7238 8.49795 18.8124 8.44046 18.8214C8.43861 18.8216 8.4931 18.6689 8.39559 18.7109C8.25632 18.6876 8.44087 18.8195 8.44046 18.8214C8.40313 18.8275 8.21955 19.0894 8.20839 19.156C8.20239 19.1922 8.31346 19.2341 8.30841 19.2519C8.18622 19.6732 7.99865 20.0576 7.7352 20.4044C7.72935 20.4098 7.6216 20.3343 7.60926 20.3479C7.43375 20.5353 7.49249 20.7542 7.47177 20.9804C7.45103 21.2066 7.34166 21.3323 7.0858 21.3256C7.03252 21.4745 6.83477 21.6181 6.71827 21.6992C6.60177 21.7803 6.81371 21.9234 6.81242 21.9357C6.78565 22.2187 6.65576 22.3499 6.50851 22.5201L5.6077 20.9598C5.68814 20.9753 5.77421 20.9901 5.87181 20.9962C6.04572 21.0074 6.39068 20.9704 6.57897 20.9425C6.72778 20.92 6.81744 20.9798 6.95456 20.9416C6.97311 20.9365 6.95436 20.8229 6.96003 20.8186C7.11305 20.6827 7.03951 20.9603 7.07111 21.0099C7.18566 21.1902 7.25643 21.2863 7.4524 21.2014C7.4976 21.182 7.62927 20.7822 7.71167 20.7589C7.8188 20.7292 7.77837 20.8725 7.89054 20.8378C7.90013 20.8349 7.89814 20.7465 7.96737 20.7504C8.28873 20.7674 8.6391 20.8188 8.97305 20.8099C9.01867 20.8091 8.96018 20.6689 9.02609 20.6653C9.33536 20.6487 9.67434 20.6539 9.97563 20.7195C10.0498 20.7361 10.0033 20.8343 10.0194 20.8634C10.1182 21.0398 10.2584 20.7835 10.2815 20.7786C10.8332 20.6555 11.2554 20.8874 11.8176 20.777C11.8482 20.7705 12.0838 20.4958 12.1889 20.7314C12.1961 20.7471 12.3001 20.9881 12.3921 20.8233C12.3978 20.813 12.333 20.6889 12.4461 20.7016C12.5591 20.7142 12.7411 20.6313 12.8966 20.7677C12.9458 20.8106 13.0621 21.0511 13.2089 20.8594C13.2185 20.846 13.4451 20.4126 13.526 20.7116C13.5391 20.7608 13.5253 21.0773 13.7005 20.9151C13.734 20.8836 13.6733 20.813 13.7614 20.7689C13.8966 20.701 14.0756 20.7858 14.2417 20.6448C14.2706 20.6198 14.3939 20.405 14.4929 20.5681C14.5084 20.5936 14.4789 20.6992 14.5312 20.7111C14.7795 20.7678 15.0396 20.6971 15.2918 20.7702C15.3812 20.7959 15.3355 20.9667 15.4286 21.0125C15.5217 21.0582 15.7094 21.1022 15.8068 21.0242C15.9043 20.9461 15.7978 20.6739 15.9438 20.6521C16.5786 20.5575 17.2074 20.7172 17.8412 20.7406C17.9352 20.744 17.8573 20.6466 17.9958 20.6448C18.5066 20.6375 19.3885 20.5462 19.8317 20.7532C20.1868 20.919 19.7399 21.0452 20.0112 21.1126C20.1422 21.1448 20.2839 20.8283 20.3155 20.8184C20.6243 20.7172 20.8389 20.8574 21.1168 20.8143C21.1742 20.8054 21.1179 20.6772 21.1668 20.671C21.3336 20.6487 21.509 20.706 21.6684 20.6955C21.74 20.6905 21.7268 20.5926 21.7926 20.6001C21.9501 20.6171 22.0893 20.6583 22.2429 20.7501C22.2569 20.7584 22.1625 20.8803 22.279 20.8848C22.4676 20.8918 22.7017 20.9824 22.9186 20.8889C22.983 20.8607 22.9855 20.6368 23.1239 20.7915C23.1529 20.8237 23.1159 21.0926 23.2771 20.8603C23.3042 20.8217 23.575 20.5084 23.7079 20.7103C23.7429 20.7635 23.8324 20.9835 23.9098 20.9489C23.9203 20.9434 23.8782 20.8231 23.9424 20.8114C24.1685 20.7722 24.4054 20.785 24.6377 20.7473C24.6997 20.737 24.6073 20.6126 24.6997 20.6012C24.9539 20.5698 25.2713 20.6014 25.5199 20.6404C25.6115 20.655 25.5482 20.7581 25.5548 20.7693C25.6621 20.9518 25.7255 20.7055 25.7611 20.6911C25.9824 20.6051 26.151 20.7208 26.355 20.6902C26.4113 20.6821 26.3714 20.5646 26.3826 20.5542C26.386 20.5512 26.3892 20.5484 26.3923 20.546L25.1331 22.727C25.0113 22.68 25.2237 22.6491 25.2076 22.576C25.1615 22.3646 25.0384 22.1703 24.9212 21.9973C24.878 21.9338 24.8031 22.0764 24.7657 22.0187C24.542 21.6782 24.3419 21.3055 24.2085 20.9243C24.1836 20.8523 24.2979 20.8406 24.3108 20.8152C24.4023 20.6384 24.1257 20.6164 24.0887 20.596C23.9203 20.5031 23.9687 20.4014 23.881 20.2841C23.4513 19.7122 23.066 18.9222 22.7637 18.3227C22.3693 17.5418 22.1168 16.9049 21.6778 16.1964C21.65 16.1513 21.5559 16.2673 21.5304 16.2293C21.2067 15.7359 20.9639 15.2063 20.6338 14.7151C20.6069 14.6747 20.5273 14.8013 20.4803 14.7386C20.3831 14.6105 20.2883 14.432 20.2443 14.2712C20.2226 14.1929 20.3736 14.2275 20.3497 14.1499C20.2944 13.969 20.2037 13.7931 20.0907 13.6397C20.0423 13.5746 19.986 13.7475 19.9323 13.6576C19.5639 13.0464 19.1934 12.4511 18.9845 11.7391C18.9702 11.6903 19.1866 11.5153 19.0884 11.4507C19.0184 11.4819 18.9409 11.5272 18.8685 11.565C18.3111 10.6874 17.8796 9.7494 17.3716 8.83998C17.3501 8.80165 17.262 8.9402 17.2198 8.86637C16.9756 8.43912 16.7017 8.04546 16.5754 7.53716C16.5627 7.48683 16.7974 7.3809 16.6903 7.27282C16.6712 7.25387 16.5307 7.07899 16.4539 7.05717C16.4428 7.05462 16.3594 7.14944 16.3207 7.08932C16.0974 6.73892 15.9035 6.34855 15.7596 5.95315C15.7366 5.88922 15.8825 5.88722 15.8671 5.84114C15.7567 5.51472 15.4891 5.24484 15.4278 4.90741C15.3871 4.68132 15.6178 4.64054 15.7481 4.43274C15.7664 4.40338 15.7037 4.28506 15.8094 4.21603C16.0751 4.04212 16.4082 3.92468 16.6875 3.73268C16.7477 3.69142 16.5902 3.5754 16.7956 3.57935C16.8095 3.57989 16.9251 3.66323 16.9927 3.66111C17.0396 3.65978 17.1306 3.56089 17.199 3.57386C17.2675 3.58685 17.1994 3.68385 17.2908 3.7181C17.3828 3.75194 17.4926 3.65031 17.5828 3.77198ZM6.19545 22.0653C6.02989 22.1071 6.40965 22.3466 6.38102 22.1815C6.37918 22.1733 6.20372 22.063 6.19545 22.0653ZM13.3307 9.565C13.0816 9.60074 13.2803 9.83839 13.4675 9.81979C13.6546 9.80112 13.4063 9.55395 13.3307 9.565ZM14.0119 8.09612C13.7859 8.17552 14.3226 8.5184 14.3085 8.2855C14.3079 8.27206 14.0251 8.09145 14.0119 8.09612ZM16.0678 4.8631C16.0721 4.8587 16.029 4.77249 16.0228 4.77345C15.8738 4.80033 15.96 4.97268 16.0678 4.8631ZM14.6759 6.63155C14.573 6.63766 14.5773 6.82882 14.7053 6.82127C14.8082 6.81516 14.8039 6.62387 14.6759 6.63155ZM11.576 21.9371C11.5778 21.9438 11.6468 21.9498 11.6454 21.9121C11.6407 21.7903 11.5448 21.8247 11.576 21.9371ZM16.0295 4.27235C15.8078 4.60839 15.2309 4.55664 15.5011 4.2073C15.55 4.14403 15.5608 4.43901 15.6523 4.37534C15.8193 4.25867 15.5948 3.98754 15.8421 3.91284C15.8872 3.89949 16.0432 4.25376 16.0298 4.27333C16.0297 4.273 16.0296 4.27267 16.0295 4.27235ZM5.69452 21.8552C5.68819 21.8543 5.63558 21.9342 5.63953 21.9391C5.73703 22.0551 5.84308 21.8942 5.69452 21.8552ZM15.6003 22.2145C15.6056 22.2272 15.8272 22.239 15.8344 22.2274C15.95 21.9945 15.502 21.9699 15.6003 22.2145ZM8.62513 16.1226C8.55313 15.9608 8.60083 15.8444 8.79817 15.8625C8.73814 15.9473 8.68481 16.0369 8.62513 16.1226Z" fill="black"/>
</svg>
